<svg width="29" height="29" viewBox="0 0 29 29" fill="none" xmlns="http://www.w3.org/2000/svg">
<path d="M14.5 0.333008C6.49177 0.333008 0 6.60092 0 14.333C0 22.0651 6.49177 28.333 14.5 28.333C22.5082 28.333 29 22.0651 29 14.333C29 6.60092 22.5082 0.333008 14.5 0.333008ZM20.3982 11.8013C20.4042 11.9209 20.4057 12.0405 20.4057 12.1572C20.4057 15.803 17.5344 20.0045 12.2812 20.0045C10.7289 20.007 9.20896 19.5765 7.90401 18.7649C8.12604 18.7911 8.35411 18.8013 8.58521 18.8013C9.92344 18.8013 11.1544 18.3624 12.1317 17.6215C11.5361 17.6103 10.9591 17.4199 10.4809 17.0769C10.0028 16.7339 9.64741 16.2555 9.46427 15.7082C9.89195 15.7867 10.3325 15.7703 10.7527 15.6601C10.1063 15.5339 9.52499 15.1957 9.10737 14.7029C8.68976 14.2101 8.46152 13.5931 8.46135 12.9563V12.9228C8.84651 13.1284 9.28755 13.2538 9.75578 13.2684C9.1498 12.8789 8.72082 12.2807 8.55658 11.5959C8.39233 10.9112 8.50523 10.1917 8.87219 9.58467C9.58957 10.4363 10.4842 11.1331 11.4981 11.6297C12.5121 12.1264 13.6228 12.4119 14.7583 12.4678C14.6139 11.8762 14.6761 11.2551 14.935 10.701C15.194 10.147 15.6353 9.69112 16.1903 9.40423C16.7453 9.11733 17.3829 9.01552 18.004 9.11461C18.6251 9.2137 19.1949 9.50815 19.6248 9.95217C20.264 9.83008 20.8769 9.60371 21.4373 9.2828C21.2243 9.92175 20.7783 10.4643 20.1822 10.8097C20.7484 10.7438 21.3012 10.5969 21.8225 10.3736C21.4396 10.9276 20.9572 11.4111 20.3982 11.8013Z" fill="white"/>
</svg>
