<svg width="31" height="40" viewBox="0 0 31 40" fill="none" xmlns="http://www.w3.org/2000/svg">
<path d="M15.5 0.21582C11.3989 0.220658 7.46721 1.85195 4.5673 4.75186C1.6674 7.65176 0.0361046 11.5835 0.0312665 15.6846C0.0263546 19.036 1.12108 22.2965 3.14752 24.9658C3.14752 24.9658 3.56939 25.5213 3.6383 25.6014L15.5 39.5908L27.3674 25.5944C27.4292 25.5199 27.8525 24.9658 27.8525 24.9658L27.8539 24.9616C29.8793 22.2934 30.9736 19.0344 30.9688 15.6846C30.9639 11.5835 29.3326 7.65176 26.4327 4.75186C23.5328 1.85195 19.6011 0.220658 15.5 0.21582ZM15.5 21.3096C14.3875 21.3096 13.3 20.9797 12.3749 20.3616C11.4499 19.7435 10.7289 18.865 10.3032 17.8372C9.87745 16.8093 9.76606 15.6783 9.9831 14.5872C10.2001 13.496 10.7359 12.4938 11.5225 11.7071C12.3092 10.9204 13.3115 10.3847 14.4026 10.1677C15.4938 9.95061 16.6248 10.062 17.6526 10.4877C18.6804 10.9135 19.5589 11.6345 20.177 12.5595C20.7951 13.4845 21.125 14.5721 21.125 15.6846C21.1232 17.1758 20.5299 18.6055 19.4754 19.66C18.4209 20.7145 16.9913 21.3077 15.5 21.3096Z" fill="#009798"/>
</svg>
