<svg width="57" height="58" viewBox="0 0 57 58" fill="none" xmlns="http://www.w3.org/2000/svg">
<path d="M47.5003 26.5259H52.2503C52.2503 14.3422 43.0519 5.15332 30.8516 5.15332V9.90332C40.4988 9.90332 47.5003 16.8929 47.5003 26.5259Z" fill="#009798"/>
<path d="M30.8757 19.4034C35.8703 19.4034 38.0007 21.5338 38.0007 26.5284H42.7507C42.7507 18.869 38.535 14.6534 30.8757 14.6534V19.4034ZM39.0029 32.3305C38.5466 31.9157 37.9469 31.6945 37.3305 31.7136C36.7141 31.7326 36.1292 31.9905 35.6993 32.4327L30.0159 38.2775C28.6479 38.0163 25.8977 37.1589 23.0667 34.335C20.2357 31.5016 19.3783 28.7443 19.1242 27.3858L24.9643 21.7C25.407 21.2705 25.6652 20.6855 25.6843 20.0689C25.7034 19.4523 25.4818 18.8525 25.0664 18.3964L16.2908 8.74677C15.8753 8.28925 15.2978 8.01172 14.6809 7.97314C14.0641 7.93456 13.4565 8.13796 12.9872 8.54015L7.83342 12.96C7.42281 13.3721 7.17773 13.9206 7.14467 14.5014C7.10904 15.0951 6.42979 29.1599 17.3358 40.0706C26.85 49.5825 38.7678 50.2784 42.05 50.2784C42.5298 50.2784 42.8243 50.2641 42.9027 50.2594C43.4834 50.2269 44.0316 49.9807 44.4417 49.5683L48.8592 44.4122C49.2617 43.9432 49.4655 43.3357 49.4273 42.7189C49.3892 42.1021 49.1121 41.5244 48.6549 41.1085L39.0029 32.3305Z" fill="#009798"/>
</svg>
