<svg width="45" height="37" viewBox="0 0 45 37" fill="none" xmlns="http://www.w3.org/2000/svg">
<path d="M45 10.7713V29.0908C45.0001 30.9586 44.2855 32.7557 43.0027 34.1133C41.72 35.471 39.9663 36.2863 38.1015 36.3921L37.6875 36.4033H7.3125C5.44469 36.4034 3.64764 35.6888 2.28998 34.4061C0.932325 33.1233 0.116997 31.3696 0.0112503 29.5048L0 29.0908V10.7713L21.717 22.1473C21.9586 22.2739 22.2273 22.34 22.5 22.34C22.7727 22.34 23.0414 22.2739 23.283 22.1473L45 10.7713ZM7.3125 0.40332H37.6875C39.5001 0.403102 41.2481 1.07606 42.5926 2.29167C43.9371 3.50728 44.7822 5.1789 44.964 6.98232L22.5 18.7498L0.0360001 6.98232C0.210428 5.25052 0.996862 3.63773 2.25394 2.43386C3.51101 1.22999 5.15628 0.513991 6.894 0.414571L7.3125 0.40332H37.6875H7.3125Z" fill="#009798"/>
</svg>
