<svg width="56" height="39" viewBox="0 0 56 39" fill="none" xmlns="http://www.w3.org/2000/svg">
<path opacity="0.3" d="M0.449997 34.65C2.55 34.05 4.44999 33.1 6.14999 31.8C7.84999 30.5 9.3 29 10.5 27.3C11.7 25.7 12.6 23.95 13.2 22.05C13.8 20.15 14 18.3 13.8 16.5H5.09999C4.3 15.4 3.65 14.15 3.15 12.75C2.65 11.35 2.39999 10.1 2.39999 9C2.39999 7.3 2.65 5.65 3.15 4.05C3.65 2.55 4.3 1.2 5.09999 0H21.9C23.5 3.7 24.4 7.25 24.6 10.65C24.6 16.35 23.55 21.1 21.45 24.9C19.25 28.8 16.6 31.9 13.5 34.2C10.3 36.6 6.85 38.2 3.15 39L0.449997 34.65ZM31.35 34.65C33.45 34.05 35.35 33.1 37.05 31.8C38.75 30.5 40.2 29 41.4 27.3C42.6 25.7 43.5 23.95 44.1 22.05C44.7 20.15 44.9 18.3 44.7 16.5H36C35.2 15.4 34.55 14.15 34.05 12.75C33.55 11.35 33.3 10.1 33.3 9C33.3 7.3 33.55 5.65 34.05 4.05C34.55 2.55 35.2 1.2 36 0H52.8C54.4 3.7 55.3 7.25 55.5 10.65C55.5 16.35 54.45 21.1 52.35 24.9C50.15 28.8 47.5 31.9 44.4 34.2C41.2 36.6 37.75 38.2 34.05 39L31.35 34.65Z" fill="#009798"/>
</svg>
