<svg width="18" height="13" viewBox="0 0 18 13" fill="none" xmlns="http://www.w3.org/2000/svg">
<path d="M17.6233 2.21199C17.5215 1.84853 17.323 1.51947 17.049 1.25979C16.7673 0.992127 16.4221 0.800661 16.0458 0.703465C14.6378 0.332331 8.99656 0.332331 8.99656 0.332331C6.64479 0.305574 4.29361 0.423259 1.95627 0.68472C1.58003 0.789098 1.23542 0.984841 0.953083 1.25454C0.67567 1.52146 0.474733 1.8506 0.369766 2.21124C0.117615 3.56962 -0.00489752 4.94889 0.00388071 6.33045C-0.00511646 7.71076 0.117095 9.08958 0.369766 10.4497C0.472484 10.8088 0.672671 11.1364 0.950833 11.4011C1.229 11.6658 1.57539 11.857 1.95627 11.9582C3.38307 12.3286 8.99656 12.3286 8.99656 12.3286C11.3513 12.3554 13.7055 12.2377 16.0458 11.9762C16.4221 11.879 16.7673 11.6875 17.049 11.4198C17.3229 11.1602 17.5211 10.8311 17.6226 10.4676C17.8813 9.10979 18.0071 7.72995 17.9982 6.34769C18.0177 4.95958 17.892 3.57324 17.6233 2.21124V2.21199ZM7.20312 8.89764V3.764L11.8966 6.3312L7.20312 8.89764Z" fill="#009798"/>
</svg>
