<svg width="16" height="16" viewBox="0 0 16 16" fill="none" xmlns="http://www.w3.org/2000/svg">
<path d="M12.2428 10.121L11.1823 9.06055L12.2428 8.00005C12.5214 7.72147 12.7424 7.39074 12.8931 7.02675C13.0439 6.66277 13.1215 6.27265 13.1215 5.87867C13.1215 5.4847 13.0439 5.09458 12.8931 4.73059C12.7424 4.36661 12.5214 4.03588 12.2428 3.7573C11.9642 3.47872 11.6335 3.25773 11.2695 3.10696C10.9055 2.9562 10.5154 2.8786 10.1214 2.8786C9.72745 2.8786 9.33733 2.9562 8.97334 3.10696C8.60936 3.25773 8.27863 3.47872 8.00005 3.7573L6.93955 4.8178L5.87905 3.7573L6.93955 2.6968C7.78578 1.86424 8.92672 1.39979 10.1138 1.40462C11.301 1.40946 12.4381 1.88318 13.2775 2.72261C14.1169 3.56203 14.5906 4.69915 14.5955 5.88626C14.6003 7.07338 14.1359 8.21432 13.3033 9.06055L12.2428 10.121ZM10.121 12.2428L9.06055 13.3033C8.64394 13.7268 8.14761 14.0635 7.6002 14.2942C7.05278 14.5249 6.46511 14.6449 5.87108 14.6473C5.27706 14.6497 4.68843 14.5345 4.13915 14.3083C3.58988 14.0821 3.09082 13.7494 2.67078 13.3293C2.25074 12.9093 1.91801 12.4102 1.69181 11.8609C1.4656 11.3117 1.35038 10.723 1.3528 10.129C1.35522 9.53499 1.47522 8.94732 1.7059 8.3999C1.93657 7.85249 2.27335 7.35616 2.6968 6.93955L3.7573 5.87905L4.8178 6.93955L3.7573 8.00005C3.47872 8.27863 3.25773 8.60936 3.10696 8.97334C2.9562 9.33733 2.8786 9.72745 2.8786 10.1214C2.8786 10.5154 2.9562 10.9055 3.10696 11.2695C3.25773 11.6335 3.47872 11.9642 3.7573 12.2428C4.03588 12.5214 4.36661 12.7424 4.73059 12.8931C5.09458 13.0439 5.4847 13.1215 5.87867 13.1215C6.27265 13.1215 6.66277 13.0439 7.02675 12.8931C7.39074 12.7424 7.72147 12.5214 8.00005 12.2428L9.06055 11.1823L10.121 12.2428ZM10.121 4.8178L11.1823 5.87905L5.87905 11.1816L4.8178 10.121L10.121 4.81855V4.8178ZM3.3313 0.719799L4.7803 0.331299L5.55655 3.23005L4.1083 3.61855L3.3313 0.720549V0.719799ZM10.4436 12.7708L11.8918 12.3823L12.6688 15.2803L11.2198 15.6688L10.4436 12.7708ZM0.719799 3.3313L3.6178 4.1083L3.2293 5.55655L0.331299 4.7803L0.719799 3.3313ZM12.7708 10.4436L15.6688 11.2198L15.2803 12.6688L12.3823 11.8918L12.7708 10.4436Z" fill="#787878"/>
</svg>
