<svg width="11" height="11" viewBox="0 0 11 11" fill="none" xmlns="http://www.w3.org/2000/svg">
<path d="M9.625 1.83334H8.25V0.916666C8.25 0.673552 8.15342 0.440394 7.98151 0.268486C7.8096 0.0965771 7.57645 0 7.33334 0H3.66666C3.42355 0 3.1904 0.0965771 3.01849 0.268486C2.84658 0.440394 2.75 0.673552 2.75 0.916666V1.83334H1.375C1.01033 1.83334 0.660591 1.9782 0.402728 2.23606C0.144866 2.49392 0 2.84367 0 3.20834V11H11V3.20834C11 2.84367 10.8551 2.49392 10.5973 2.23606C10.3394 1.9782 9.98967 1.83334 9.625 1.83334ZM3.66666 0.916666H7.33334V1.83334H3.66666V0.916666ZM1.375 2.75H9.625C9.74656 2.75 9.86314 2.79829 9.94909 2.88424C10.035 2.9702 10.0833 3.08678 10.0833 3.20834V5.5H0.916666V3.20834C0.916666 3.08678 0.964955 2.9702 1.05091 2.88424C1.13686 2.79829 1.25344 2.75 1.375 2.75ZM0.916666 10.0833V6.41666H5.04166V7.33334H5.95834V6.41666H10.0833V10.0833H0.916666Z" fill="#787878"/>
</svg>
