<svg width="11" height="13" viewBox="0 0 11 13" fill="none" xmlns="http://www.w3.org/2000/svg">
<path d="M5.50014 13.0044L5.12097 12.6794C4.59826 12.2417 0.0341797 8.3 0.0341797 5.41671C0.0341797 3.96704 0.610059 2.57676 1.63512 1.55169C2.66019 0.52662 4.05048 -0.0492554 5.50014 -0.0492554C6.9498 -0.0492554 8.34009 0.52662 9.3652 1.55169C10.3902 2.57676 10.9661 3.96704 10.9661 5.41671C10.9661 8.3 6.40201 12.2417 5.88147 12.6815L5.50014 13.0044ZM5.50014 1.13267C4.36434 1.13396 3.27542 1.58572 2.47229 2.38886C1.66915 3.19199 1.21739 4.2809 1.2161 5.41671C1.2161 7.22803 4.0241 10.1216 5.50014 11.446C6.97618 10.1211 9.7842 7.22587 9.7842 5.41671C9.7829 4.2809 9.3311 3.19199 8.52799 2.38886C7.72485 1.58572 6.63594 1.13396 5.50014 1.13267Z" fill="#787878"/>
<path d="M5.50016 7.5834C5.07164 7.5834 4.65274 7.45632 4.29643 7.21824C3.94012 6.98016 3.66241 6.64178 3.49842 6.24587C3.33443 5.84996 3.29153 5.41432 3.37513 4.99403C3.45873 4.57374 3.66509 4.18767 3.9681 3.88466C4.27111 3.58164 4.65718 3.37529 5.07747 3.29169C5.49776 3.20809 5.93341 3.25099 6.32931 3.41498C6.72522 3.57897 7.06361 3.85668 7.30168 4.21299C7.53976 4.56929 7.66683 4.9882 7.66683 5.41672C7.66683 5.99136 7.43856 6.54246 7.03223 6.94879C6.6259 7.35512 6.0748 7.5834 5.50016 7.5834ZM5.50016 4.3334C5.2859 4.3334 5.07645 4.39693 4.8983 4.51596C4.72014 4.635 4.58129 4.8042 4.49929 5.00215C4.4173 5.2001 4.39585 5.41793 4.43765 5.62807C4.47945 5.83822 4.58262 6.03126 4.73413 6.18277C4.88564 6.33426 5.07867 6.43744 5.28882 6.47924C5.49896 6.52104 5.71678 6.49959 5.91474 6.41759C6.11269 6.3356 6.28188 6.19674 6.40092 6.01859C6.51996 5.84044 6.5835 5.63099 6.5835 5.41672C6.5835 5.12941 6.46936 4.85386 6.2662 4.65069C6.06303 4.44753 5.78748 4.3334 5.50016 4.3334Z" fill="#787878"/>
</svg>
