<svg width="54" height="54" viewBox="0 0 54 54" fill="none" xmlns="http://www.w3.org/2000/svg">
<path d="M34.7343 45.4424C44.9195 41.17 49.7128 29.4497 45.4403 19.2644C41.1678 9.0792 29.4475 4.28596 19.2623 8.55843C9.07708 12.8309 4.28384 24.5512 8.55631 34.7364C12.8288 44.9217 24.5491 49.7149 34.7343 45.4424Z" fill="black"/>
<path d="M32.1223 21.7237C32.1223 24.0893 30.1992 26.0124 27.8336 26.0124C25.468 26.0124 23.5449 24.0893 23.5449 21.7237C23.5449 19.3582 25.468 17.4351 27.8336 17.4351C30.1992 17.4351 32.1223 19.3582 32.1223 21.7237Z" fill="white"/>
<path d="M27.8331 27.4844C23.4424 27.4844 19.877 31.0498 19.877 35.4406C19.877 36.5893 20.813 37.5253 21.9617 37.5253H33.6961C34.8448 37.5253 35.7808 36.5893 35.7808 35.4406C35.7893 31.0413 32.2239 27.4844 27.8331 27.4844Z" fill="white"/>
</svg>
