<svg width="18" height="18" viewBox="0 0 18 18" fill="none" xmlns="http://www.w3.org/2000/svg">
<path d="M2.61521 5.01168C3.73164 5.01168 4.63668 4.10664 4.63668 2.99021C4.63668 1.87379 3.73164 0.96875 2.61521 0.96875C1.49879 0.96875 0.59375 1.87379 0.59375 2.99021C0.59375 4.10664 1.49879 5.01168 2.61521 5.01168Z" fill="white"/>
<path d="M6.54316 6.54376V17.7588H10.0253V12.2127C10.0253 10.7493 10.3006 9.33204 12.1151 9.33204C13.9047 9.33204 13.9269 11.0052 13.9269 12.3051V17.7597H17.4108V11.6094C17.4108 8.58832 16.7604 6.26659 13.2293 6.26659C11.534 6.26659 10.3976 7.19694 9.9329 8.07741H9.88578V6.54376H6.54316ZM0.868652 6.54376H4.35632V17.7588H0.868652V6.54376Z" fill="white"/>
</svg>
