<svg width="20" height="17" viewBox="0 0 20 17" fill="none" xmlns="http://www.w3.org/2000/svg">
<path d="M6.22739 16.031C7.72458 16.0404 9.20874 15.7525 10.5938 15.184C11.9788 14.6154 13.2372 13.7776 14.2959 12.719C15.3546 11.6604 16.1925 10.4022 16.7612 9.01734C17.3298 7.63245 17.6177 6.14846 17.6083 4.65144V4.12855C18.3844 3.56001 19.0561 2.86135 19.5938 2.06357C18.863 2.38315 18.0897 2.5951 17.2981 2.69281C18.1374 2.19276 18.7671 1.40567 19.0708 0.477159C18.2886 0.946382 17.4309 1.27624 16.5358 1.45205C15.933 0.809832 15.1353 0.384151 14.2662 0.24087C13.3971 0.0975885 12.505 0.244693 11.7279 0.659422C10.9508 1.07415 10.3321 1.73339 9.96749 2.53512C9.60286 3.33686 9.51264 4.23641 9.7108 5.09457C8.12068 5.01653 6.56484 4.60449 5.14457 3.88528C3.7243 3.16606 2.47145 2.15581 1.46761 0.920289C0.961431 1.79873 0.808006 2.83667 1.0384 3.82396C1.2688 4.81126 1.86579 5.67412 2.70852 6.23785C2.08684 6.21388 1.47954 6.04385 0.935795 5.74154V5.78586C0.930271 6.70388 1.23957 7.59606 1.81215 8.31371C2.38472 9.03136 3.18598 9.53113 4.08239 9.72972C3.50416 9.88522 2.89846 9.90944 2.30966 9.80062C2.56917 10.5835 3.06456 11.267 3.72788 11.7573C4.3912 12.2476 5.18998 12.5207 6.01466 12.5392C4.60464 13.674 2.85219 14.2987 1.04216 14.3117C0.7248 14.3025 0.408185 14.2759 0.09375 14.2319C1.92582 15.399 4.05509 16.0144 6.22739 16.0044" fill="white"/>
</svg>
