<svg width="21" height="21" viewBox="0 0 21 21" fill="none" xmlns="http://www.w3.org/2000/svg">
<path fill-rule="evenodd" clip-rule="evenodd" d="M6.54284 0.8085C7.58255 0.760636 7.91405 0.75 10.5625 0.75C13.211 0.75 13.5425 0.761523 14.5813 0.8085C15.6201 0.855477 16.3292 1.02123 16.9496 1.26143C17.5993 1.50695 18.1888 1.89075 18.6763 2.38711C19.1726 2.87373 19.5555 3.46227 19.8002 4.11286C20.0413 4.73332 20.2061 5.44241 20.254 6.47945C20.3019 7.52093 20.3125 7.85243 20.3125 10.5C20.3125 13.1485 20.301 13.48 20.254 14.5197C20.207 15.5567 20.0413 16.2658 19.8002 16.8862C19.5555 17.5369 19.172 18.1264 18.6763 18.6138C18.1888 19.1101 17.5993 19.493 16.9496 19.7377C16.3292 19.9788 15.6201 20.1436 14.583 20.1915C13.5425 20.2394 13.211 20.25 10.5625 20.25C7.91405 20.25 7.58255 20.2385 6.54284 20.1915C5.5058 20.1445 4.7967 19.9788 4.17625 19.7377C3.52559 19.493 2.93607 19.1095 2.44873 18.6138C1.9527 18.1269 1.56885 17.5376 1.32393 16.8871C1.08373 16.2667 0.918864 15.5576 0.871 14.5205C0.823136 13.4791 0.8125 13.1476 0.8125 10.5C0.8125 7.85155 0.824023 7.52005 0.871 6.48123C0.917977 5.44241 1.08373 4.73332 1.32393 4.11286C1.56921 3.46234 1.95336 2.87312 2.44961 2.38623C2.93626 1.89031 3.52519 1.50646 4.17536 1.26143C4.79582 1.02123 5.50491 0.856364 6.54195 0.8085H6.54284ZM14.5024 2.5635C13.4742 2.51652 13.1657 2.50677 10.5625 2.50677C7.95925 2.50677 7.65079 2.51652 6.62261 2.5635C5.67155 2.60693 5.15568 2.76559 4.81177 2.89943C4.35707 3.0767 4.03177 3.28677 3.69052 3.62802C3.36704 3.94273 3.11809 4.32584 2.96193 4.74927C2.82809 5.09318 2.66943 5.60905 2.626 6.56011C2.57902 7.58829 2.56927 7.89675 2.56927 10.5C2.56927 13.1032 2.57902 13.4117 2.626 14.4399C2.66943 15.391 2.82809 15.9068 2.96193 16.2507C3.11793 16.6735 3.367 17.0573 3.69052 17.372C4.00518 17.6955 4.38898 17.9446 4.81177 18.1006C5.15568 18.2344 5.67155 18.3931 6.62261 18.4365C7.65079 18.4835 7.95836 18.4932 10.5625 18.4932C13.1666 18.4932 13.4742 18.4835 14.5024 18.4365C15.4535 18.3931 15.9693 18.2344 16.3132 18.1006C16.7679 17.9233 17.0932 17.7132 17.4345 17.372C17.758 17.0573 18.0071 16.6735 18.1631 16.2507C18.2969 15.9068 18.4556 15.391 18.499 14.4399C18.546 13.4117 18.5557 13.1032 18.5557 10.5C18.5557 7.89675 18.546 7.58829 18.499 6.56011C18.4556 5.60905 18.2969 5.09318 18.1631 4.74927C17.9858 4.29457 17.7757 3.96927 17.4345 3.62802C17.1198 3.30456 16.7366 3.05562 16.3132 2.89943C15.9693 2.76559 15.4535 2.60693 14.5024 2.5635ZM9.31716 13.5057C10.0127 13.7952 10.7871 13.8342 11.5082 13.6162C12.2293 13.3982 12.8523 12.9365 13.2709 12.3102C13.6894 11.6838 13.8775 10.9315 13.8031 10.1819C13.7286 9.43223 13.3962 8.73168 12.8626 8.19989C12.5225 7.85994 12.1112 7.59965 11.6583 7.43774C11.2055 7.27584 10.7224 7.21634 10.2438 7.26355C9.76527 7.31075 9.30311 7.46348 8.89064 7.71073C8.47818 7.95798 8.12566 8.29361 7.85847 8.69346C7.59129 9.0933 7.41608 9.54741 7.34546 10.0231C7.27484 10.4988 7.31057 10.9842 7.45007 11.4444C7.58957 11.9047 7.82938 12.3282 8.15223 12.6846C8.47508 13.0411 8.87294 13.3215 9.31716 13.5057ZM7.01882 6.95632C7.48418 6.49095 8.03665 6.12181 8.64467 5.86996C9.2527 5.6181 9.90438 5.48848 10.5625 5.48848C11.2206 5.48848 11.8723 5.6181 12.4803 5.86996C13.0884 6.12181 13.6408 6.49095 14.1062 6.95632C14.5715 7.42168 14.9407 7.97415 15.1925 8.58217C15.4444 9.1902 15.574 9.84188 15.574 10.5C15.574 11.1581 15.4444 11.8098 15.1925 12.4178C14.9407 13.0259 14.5715 13.5783 14.1062 14.0437C13.1663 14.9835 11.8916 15.5115 10.5625 15.5115C9.23336 15.5115 7.95866 14.9835 7.01882 14.0437C6.07898 13.1038 5.55098 11.8291 5.55098 10.5C5.55098 9.17086 6.07898 7.89616 7.01882 6.95632ZM16.6855 6.23482C16.8008 6.12603 16.8931 5.99522 16.957 5.85011C17.0209 5.70501 17.0549 5.54857 17.0573 5.39005C17.0596 5.23154 17.03 5.07417 16.9704 4.92726C16.9109 4.78036 16.8224 4.64691 16.7103 4.53481C16.5982 4.42271 16.4647 4.33424 16.3178 4.27464C16.1709 4.21504 16.0136 4.18552 15.855 4.18783C15.6965 4.19015 15.5401 4.22424 15.395 4.28809C15.2499 4.35195 15.1191 4.44427 15.0103 4.55959C14.7987 4.78387 14.6829 5.08177 14.6874 5.39005C14.6919 5.69834 14.8163 5.99273 15.0343 6.21075C15.2524 6.42876 15.5468 6.55323 15.855 6.55772C16.1633 6.56221 16.4612 6.44638 16.6855 6.23482Z" fill="white"/>
</svg>
